<?xml version="1.0" encoding="UTF-8"?>
<svg id="Layer_1" data-name="Layer 1" xmlns="http://www.w3.org/2000/svg" version="1.1" viewBox="0 0 4975 4975">
  <defs>
    <style>
      .cls-1 {
        fill: #231f20;
        stroke-width: 0px;
      }
    </style>
  </defs>
  <path class="cls-1" d="M2789,2784.5h-2.5s-705.4-.4-705.4-.4l-2.2-1.2c-118.9-63.6-218.9-158.1-289.3-273.2-72.5-118.4-110.8-254.8-110.8-394.4,0-102.1,20-201.2,59.5-294.5,38.1-90.1,92.7-171,162.2-240.5,69.5-69.5,150.4-124,240.5-162.2,93.3-39.5,192.4-59.5,294.5-59.5s201.2,20,294.5,59.5c90.1,38.1,171,92.7,240.5,162.2,69.5,69.5,124,150.4,162.2,240.5,39.5,93.3,59.5,192.4,59.5,294.5s-38.4,276.2-111,394.7c-70.6,115.2-170.8,209.7-289.9,273.2l-2.2,1.2ZM2086.1,2764.1l697.9.4c239.5-128.8,388.1-377.3,388.1-649.2,0-406.2-330.5-736.7-736.7-736.7s-736.7,330.5-736.7,736.7c0,271.5,148.4,519.8,387.3,648.7Z"/>
  <path class="cls-1" d="M1926.1,2476.2c-16.8,0-33.3-8.5-42.7-23.9-61.9-101.1-94.6-217.7-94.6-337s17.1-172,50.8-251.7c32.6-77,79.2-146.2,138.6-205.6,59.4-59.4,128.6-106.1,205.6-138.6,25.4-10.8,54.8,1.1,65.5,26.6,10.8,25.4-1.1,54.8-26.6,65.5-65.1,27.5-123.6,67-173.8,117.2-50.3,50.3-89.7,108.8-117.2,173.8-28.5,67.3-42.9,138.8-42.9,212.7s27.6,199.3,79.9,284.8c14.4,23.6,7,54.3-16.6,68.7-8.1,5-17.2,7.4-26,7.4Z"/>
  <path class="cls-1" d="M2745.4,3015h-608c-55.2,0-100-44.8-100-100s44.8-100,100-100h608c55.2,0,100,44.8,100,100s-44.8,100-100,100Z"/>
  <path class="cls-1" d="M2745.4,3238h-608c-55.2,0-100-44.8-100-100s44.8-100,100-100h608c55.2,0,100,44.8,100,100s-44.8,100-100,100Z"/>
  <path class="cls-1" d="M2625.4,3462h-358c-55.2,0-100-44.8-100-100s44.8-100,100-100h358c55.2,0,100,44.8,100,100s-44.8,100-100,100Z"/>
  <circle class="cls-1" cx="2326.2" cy="1527.7" r="51" transform="translate(-441.3 1821.1) rotate(-39.3)"/>
</svg>