<?xml version="1.0" encoding="UTF-8"?>
<svg id="Capa_1" data-name="Capa 1" xmlns="http://www.w3.org/2000/svg" version="1.1" viewBox="0 0 500 500">
  <defs>
    <style>
      .cls-1 {
        fill: #000;
        stroke-width: 0px;
      }
    </style>
  </defs>
  <path class="cls-1" d="M415.69,353.45c-2.71-4.39-6.59-7.93-11.22-10.23-15.51-7.73-25.15-23.3-25.15-40.63v-91.63c0-34.54-13.45-67.02-37.88-91.44-15.98-15.98-35.77-27.46-57.42-33.35,0-.05,0-.11,0-.16,0-18.76-15.26-34.03-34.03-34.03s-34.02,15.26-34.02,34.03c0,.05,0,.11,0,.16-26.3,7.17-50.03,22.78-67.14,44.23-18.42,23.1-28.15,50.96-28.15,80.56v91.63c0,8.45-2.35,16.71-6.8,23.9-4.45,7.18-10.79,12.97-18.35,16.74-4.63,2.31-8.51,5.85-11.22,10.23-2.72,4.39-4.15,9.44-4.15,14.61,0,15.3,12.45,27.75,27.75,27.75h85.69c2.24,29.17,26.67,52.22,56.4,52.22s54.17-23.05,56.4-52.22h85.69c15.3,0,27.75-12.45,27.75-27.75,0-5.17-1.44-10.22-4.15-14.6ZM250,439.3c-24.92,0-45.45-19.14-47.66-43.49h95.32c-2.21,24.35-22.74,43.49-47.66,43.49ZM392.09,387.08H107.91c-10.49,0-19.03-8.53-19.03-19.03,0-3.54.98-7,2.85-10.01,1.86-3.01,4.52-5.43,7.69-7.01,9.01-4.49,16.58-11.39,21.88-19.96,5.3-8.56,8.1-18.41,8.1-28.49v-91.63c0-27.61,9.08-53.58,26.25-75.12,16.67-20.91,40.08-35.86,65.91-42.1,2.15-.52,3.57-2.57,3.31-4.77-.12-.96-.17-1.96-.17-2.97,0-13.95,11.35-25.3,25.3-25.3s25.3,11.35,25.3,25.3c0,1.01-.06,2.01-.17,2.97-.27,2.2,1.16,4.25,3.31,4.77,21.47,5.19,41.13,16.23,56.84,31.95,22.78,22.78,35.32,53.06,35.32,85.27v91.63c0,20.66,11.49,39.23,29.98,48.44,3.17,1.58,5.83,4.01,7.69,7.02,1.86,3.01,2.85,6.47,2.85,10.01,0,10.49-8.53,19.03-19.03,19.03Z"/>
</svg>