<?xml version="1.0" encoding="UTF-8"?>
<svg id="Layer_1" data-name="Layer 1" xmlns="http://www.w3.org/2000/svg" version="1.1" viewBox="0 0 500 500">
  <defs>
    <style>
      .cls-1 {
        stroke-width: 4px;
      }

      .cls-1, .cls-2 {
        stroke: #000;
        stroke-miterlimit: 10;
      }

      .cls-1, .cls-2, .cls-3 {
        fill: #fff;
      }

      .cls-4 {
        fill: #000;
      }

      .cls-4, .cls-3 {
        stroke-width: 0px;
      }

      .cls-2 {
        stroke-width: 6px;
      }
    </style>
  </defs>
  <g>
    <g>
      <polygon class="cls-3" points="163 423 163 78.8 164.8 77 417.2 77 419 78.8 419 379.2 375.2 423 163 423"/>
      <path class="cls-4" d="M416.3,79l.7.7v298.7l-42.7,42.7h-209.3V79.7l.7-.7h250.7M418,75h-254c-1.2,1.2-1.8,1.8-3,3v347h215l45-45V78c-1.2-1.2-1.8-1.8-3-3h0Z"/>
    </g>
    <g>
      <path class="cls-3" d="M117,423V118c0-.6.4-1,1-1h45v306h-46Z"/>
      <path class="cls-4" d="M161,119v302h-42V119h42M165,115h-47c-1.7,0-3,1.3-3,3v307h50V115h0Z"/>
    </g>
    <g>
      <path class="cls-3" d="M82,423c-.6,0-1-.4-1-1V158c0-.6.4-1,1-1h35v266h-35Z"/>
      <path class="cls-4" d="M115,159v262h-32V159h32M119,155h-37c-1.7,0-3,1.3-3,3v264c0,1.7,1.3,3,3,3h37V155h0Z"/>
    </g>
    <line class="cls-1" x1="419" y1="380" x2="374" y2="380"/>
    <line class="cls-1" x1="376" y1="423" x2="376" y2="378"/>
  </g>
  <g>
    <rect class="cls-1" x="227" y="187" width="130" height="40" rx="6" ry="6"/>
    <path class="cls-1" d="M279,111h26c13.8,0,25,11.2,25,25v51h-76v-51c0-13.8,11.2-25,25-25Z"/>
  </g>
  <line class="cls-2" x1="226.9" y1="257" x2="356.9" y2="257"/>
  <line class="cls-2" x1="226.9" y1="287.3" x2="356.9" y2="287.3"/>
  <line class="cls-2" x1="226.9" y1="317.5" x2="356.9" y2="317.5"/>
  <line class="cls-2" x1="226.9" y1="347.8" x2="356.9" y2="347.8"/>
  <line class="cls-2" x1="226.9" y1="378" x2="356.9" y2="378"/>
</svg>