<?xml version="1.0" encoding="UTF-8"?>
<svg id="Layer_1" data-name="Layer 1" xmlns="http://www.w3.org/2000/svg" version="1.1" viewBox="0 0 500 500">
  <defs>
    <style>
      .cls-1 {
        fill: #000;
        stroke-width: 0px;
      }

      .cls-2, .cls-3 {
        stroke-width: 4px;
      }

      .cls-2, .cls-3, .cls-4, .cls-5 {
        stroke: #000;
        stroke-miterlimit: 10;
      }

      .cls-2, .cls-4, .cls-5 {
        fill: none;
      }

      .cls-3 {
        fill: #fff;
      }

      .cls-4 {
        stroke-width: 5px;
      }

      .cls-5 {
        stroke-width: 6px;
      }
    </style>
  </defs>
  <g>
    <path class="cls-1" d="M161,119v302h-42V119h42M165,115h-47c-1.7,0-3,1.3-3,3v307h50V115h0Z"/>
    <path class="cls-1" d="M115,159v262h-32V159h32M119,155h-37c-1.7,0-3,1.3-3,3v264c0,1.7,1.3,3,3,3h37V155h0Z"/>
    <path class="cls-2" d="M374,380"/>
    <path class="cls-2" d="M419,380"/>
    <path class="cls-2" d="M376,378"/>
    <path class="cls-2" d="M376,423"/>
    <path class="cls-4" d="M423.6,355.5V75.5c0-1.7-1.3-3-3-3h-254c-1.7,0-3,1.3-3,3v347h193.4"/>
  </g>
  <g>
    <rect class="cls-3" x="227" y="187" width="130" height="40" rx="6" ry="6"/>
    <path class="cls-3" d="M279,111h26c13.8,0,25,11.2,25,25v51h-76v-51c0-13.8,11.2-25,25-25Z"/>
  </g>
  <line class="cls-5" x1="226.9" y1="257" x2="356.9" y2="257"/>
  <line class="cls-5" x1="226.9" y1="287.3" x2="356.9" y2="287.3"/>
  <line class="cls-5" x1="226.9" y1="317.5" x2="356.9" y2="317.5"/>
  <line class="cls-5" x1="226.9" y1="347.8" x2="356.9" y2="347.8"/>
  <line class="cls-5" x1="226.9" y1="378" x2="293.6" y2="378"/>
  <g>
    <line class="cls-5" x1="396.1" y1="355.3" x2="396.1" y2="423"/>
    <line class="cls-5" x1="431.6" y1="389.2" x2="360.7" y2="389.2"/>
  </g>
</svg>