<?xml version="1.0" encoding="UTF-8"?>
<svg id="Capa_1" data-name="Capa 1" xmlns="http://www.w3.org/2000/svg" version="1.1" viewBox="0 0 500 500">
  <defs>
    <style>
      .cls-1 {
        fill: #000;
        stroke-width: 0px;
      }

      .cls-2 {
        fill: #fff;
        stroke: #c33;
        stroke-miterlimit: 10;
        stroke-width: 21px;
      }
    </style>
  </defs>
  <path class="cls-2" d="M245.59,69.49L37.35,430.18c-1.96,3.39.49,7.64,4.41,7.64h416.49c3.92,0,6.37-4.24,4.41-7.64L254.41,69.49c-1.96-3.39-6.86-3.39-8.82,0Z"/>
  <path class="cls-1" d="M251.52,397.88c-12.85,0-21.78-9.28-21.78-22.85,0-12.85,8.93-22.85,21.78-22.85s22.49,10,22.49,22.85c0,13.57-9.64,22.85-22.49,22.85ZM251.16,155.81c9.64,0,20.35,2.14,20.71,12.14,0,3.57-.36,8.57-1.07,13.92-2.5,27.49-9.64,91.76-12.5,134.24h-13.92c-3.21-42.49-9.64-104.96-12.5-133.88-.36-4.64-1.07-11.07-1.07-14.64,0-9.28,10.35-11.78,20.35-11.78Z"/>
</svg>